<svg xmlns="http://www.w3.org/2000/svg" viewBox="0 0 512 512" width="512" height="512">
  <!-- Círculo negro -->
  <circle cx="256" cy="256" r="256" fill="#000000"/>
  
  <!-- Octocat en blanco -->
  <g transform="translate(0,512) scale(0.1,-0.1)" fill="#FFFFFF">
    <path d="M2360 5049 c-154 -11 -357 -47 -516 -93 -902 -259 -1603 -1017 -1790
    -1934 -136 -669 -8 -1355 354 -1908 255 -390 580 -686 968 -886 141 -73 341
    -154 403 -164 49 -8 100 15 124 57 15 27 17 61 17 286 l0 255 -67 -9 c-104
    -12 -329 -7 -416 11 -111 22 -200 68 -273 141 -49 50 -68 80 -104 161 -79 181
    -160 296 -255 358 -97 65 -145 130 -116 159 19 19 124 21 185 3 122 -36 230
    -123 324 -263 115 -171 235 -252 381 -261 88 -5 195 10 284 39 l63 21 17 71
    c20 88 68 187 113 237 l34 37 -63 7 c-341 38 -644 174 -823 369 -176 193 -274
    502 -275 865 0 204 28 337 101 483 30 59 96 157 131 194 l29 31 -19 54 c-56
    161 -49 357 20 567 19 58 22 62 58 68 101 17 403 -97 614 -232 l58 -37 92 22
    c205 49 279 56 547 56 268 0 342 -7 547 -56 l92 -22 53 34 c234 148 503 252
    610 236 l45 -7 26 -87 c66 -216 71 -386 17 -540 l-19 -53 50 -62 c148 -182
    210 -375 210 -649 -1 -490 -164 -842 -478 -1031 -168 -101 -339 -159 -567
    -193 l-115 -17 35 -41 c42 -49 88 -140 111 -221 14 -51 17 -123 20 -500 4
    -493 5 -499 71 -531 46 -21 83 -15 229 42 738 284 1320 932 1533 1703 141 513
    111 1108 -80 1601 -172 440 -475 842 -848 1122 -405 303 -865 474 -1367 507
    -175 12 -192 12 -375 0z"/>
  </g>
</svg>
